 <svg xmlns="http://www.w3.org/2000/svg" width="32" height="32" viewBox="0 0 32 32">
  <defs>
    <linearGradient id="grad1" x1="0%" y1="0%" x2="100%" y2="100%">
      <stop offset="0%" style="stop-color:#667eea;stop-opacity:1" />
      <stop offset="100%" style="stop-color:#764ba2;stop-opacity:1" />
    </linearGradient>
  </defs>
  
  <!-- 背景圆角矩形 -->
  <rect x="2" y="2" width="28" height="28" rx="6" ry="6" fill="url(#grad1)"/>
  
  <!-- JSON大括号 -->
  <path d="M8 10 Q6 10 6 12 L6 14 Q6 16 4 16 Q6 16 6 18 L6 20 Q6 22 8 22" 
        stroke="white" stroke-width="1.5" fill="none" stroke-linecap="round"/>
  
  <path d="M24 10 Q26 10 26 12 L26 14 Q26 16 28 16 Q26 16 26 18 L26 20 Q26 22 24 22" 
        stroke="white" stroke-width="1.5" fill="none" stroke-linecap="round"/>
  
  <!-- 中间的装饰点 -->
  <circle cx="16" cy="13" r="1" fill="white" opacity="0.8"/>
  <circle cx="16" cy="16" r="1" fill="white" opacity="0.8"/>
  <circle cx="16" cy="19" r="1" fill="white" opacity="0.8"/>
  
  <!-- 小装饰线 -->
  <line x1="11" y1="13" x2="14" y2="13" stroke="white" stroke-width="1" opacity="0.6"/>
  <line x1="18" y1="16" x2="21" y2="16" stroke="white" stroke-width="1" opacity="0.6"/>
  <line x1="11" y1="19" x2="14" y2="19" stroke="white" stroke-width="1" opacity="0.6"/>
</svg>